<svg xmlns="http://www.w3.org/2000/svg" width="2048" height="2048" viewBox="0 0 2048 2048" version="1.1">
	<path d="M 665.357 456.068 C 495.279 466.923, 356.940 599.314, 331.574 775.500 C 328.175 799.107, 328.018 818.402, 328.009 1213.716 L 328 1607.932 465.250 1607.716 L 602.500 1607.500 602.711 1395 C 602.991 1114.335, 602.530 1132.201, 610.066 1109.599 C 630.453 1048.457, 700.844 1010.832, 751.064 1034.233 C 765.347 1040.888, 752.722 1028.529, 999.576 1277.500 C 1062.833 1341.300, 1134.144 1413.296, 1158.045 1437.492 C 1251.447 1532.048, 1315.713 1595.903, 1321 1599.406 C 1331.229 1606.183, 1336.606 1607.285, 1361.815 1607.767 C 1437.891 1609.224, 1494.074 1594.907, 1553.500 1558.920 C 1574.832 1546.002, 1599.416 1525.789, 1620.371 1503.938 C 1680.318 1441.431, 1716.178 1356.452, 1722.045 1263 C 1724.017 1231.596, 1722.788 796.686, 1720.684 781 C 1710.667 706.345, 1687.516 648.712, 1645.164 593 C 1618.970 558.543, 1576.153 520.658, 1543.500 503.045 C 1540.200 501.265, 1537.050 499.452, 1536.500 499.016 C 1533.738 496.826, 1506.077 483.638, 1496 479.707 C 1428.958 453.554, 1350.531 448.508, 1284 466.068 C 1227.774 480.908, 1194.192 498.807, 1133.089 546.500 C 1124.633 553.100, 1115.388 560.300, 1112.543 562.500 C 1098.590 573.291, 1079.154 588.447, 1067 598.014 C 1059.575 603.858, 1051.990 609.686, 1050.144 610.963 L 1046.789 613.286 1104.495 670.646 L 1162.201 728.005 1171.350 720.700 C 1232.230 672.091, 1252.378 660.378, 1290.643 651.351 C 1306.870 647.523, 1340.433 647.213, 1356.214 650.744 C 1424.651 666.061, 1474.734 722.545, 1484.074 794.949 C 1485.893 809.053, 1485.314 1263.930, 1483.463 1274.581 C 1478.062 1305.666, 1465.095 1327.160, 1443.762 1340.392 C 1424.628 1352.261, 1405.900 1353.604, 1389.146 1344.310 C 1381.639 1340.146, 1388.640 1347.040, 1265.454 1222.512 C 1106.941 1062.272, 953.367 909.079, 942.419 900.279 C 870.797 842.708, 764.723 827.372, 672 861.181 C 596.684 888.644, 535.224 943.866, 490.707 1024.078 C 486.610 1031.460, 481.584 1040.571, 479.538 1044.326 C 475.003 1052.645, 474.451 1052.456, 476.933 1043.430 C 477.981 1039.619, 480.436 1029.300, 482.388 1020.500 C 484.340 1011.700, 487.541 997.525, 489.503 989 C 503.877 926.529, 514.867 867.528, 520.003 825.256 C 523.678 795.018, 524.823 789.235, 530.548 772.026 C 552.643 705.611, 607.023 658.587, 672.868 648.959 C 685.453 647.119, 717.786 648.249, 730.500 650.973 C 750.941 655.352, 773.406 664.622, 789.781 675.435 C 809.163 688.234, 807.423 686.547, 956.500 837.021 C 1077.591 959.247, 1092.569 974.319, 1115.635 997.165 L 1139.770 1021.069 1146.135 1018.673 C 1169.249 1009.969, 1185.965 997.366, 1199.495 978.443 C 1229.501 936.475, 1228.749 877.229, 1197.680 835.406 C 1186.696 820.620, 912.769 545.184, 891.743 527.784 C 829.717 476.452, 748.599 450.755, 665.357 456.068" stroke="none" fill="#0ea5e9" fill-rule="evenodd"/>
</svg>